<?xml version="1.0" encoding="UTF-8"?>
<svg width="403px" height="416px" viewBox="0 0 403 416" version="1.1" xmlns="http://www.w3.org/2000/svg" xmlns:xlink="http://www.w3.org/1999/xlink">
    <title>Group 9</title>
    <defs>
        <linearGradient x1="50%" y1="0%" x2="50%" y2="100%" id="linearGradient-1">
            <stop stop-color="#21369D" offset="0%"></stop>
            <stop stop-color="#8792C9" offset="100%"></stop>
        </linearGradient>
        <circle id="path-2" cx="201.457551" cy="201.457551" r="201.457551"></circle>
        <circle id="path-4" cx="86.3389505" cy="86.3389505" r="86.3389505"></circle>
        <linearGradient x1="100%" y1="50%" x2="0%" y2="50%" id="linearGradient-6">
            <stop stop-color="#21369D" offset="0%"></stop>
            <stop stop-color="#8792C9" offset="100%"></stop>
        </linearGradient>
    </defs>
    <g id="Page-1" stroke="none" stroke-width="1" fill="none" fill-rule="evenodd">
        <g id="Group-9" transform="translate(-0.000000, 0.000000)">
            <g id="Group">
                <g id="Group-32">
                    <mask id="mask-3" fill="white">
                        <use xlink:href="#path-2"></use>
                    </mask>
                    <use id="Oval" fill="url(#linearGradient-1)" xlink:href="#path-2"></use>
                    <path d="M299.009328,67.4882796 C339.173297,67.4882796 381.172472,131.918843 381.172472,201.457551 C381.172472,236.191111 352.550876,264.369482 318.894808,283.875584 C349.628184,305.23505 368.667319,334.885141 368.667319,367.660031 C368.667319,432.748262 293.579467,485.512698 200.953907,485.512698 C108.328348,485.512698 33.2404959,432.748262 33.2404959,367.660031 C33.2404959,334.720813 52.471028,304.937807 83.4731223,283.55245 C50.057351,264.062544 21.746475,236.00206 21.746475,201.457551 C21.746475,131.918843 63.7456508,67.4882796 103.909619,67.4882796 C138.071178,67.4882796 166.731242,108.270193 174.534614,163.248484 L174.792221,165.127359 L174.792221,165.127359 L174.942821,166.333948 L174.942821,166.333948 L175.226154,168.794431 L175.226154,168.794431 L175.882534,174.913313 L175.882534,174.913313 L177.886694,194.174108 L177.886694,194.174108 L178.533551,200.214563 L178.533551,200.214563 L179.054369,204.947943 L179.054369,204.947943 L179.581196,209.587934 L179.581196,209.587934 L180.034084,213.434127 L180.034084,213.434127 L180.410227,216.51103 L180.410227,216.51103 L180.709118,218.869005 L180.709118,218.869005 L181.005286,221.11984 L181.005286,221.11984 L181.225115,222.729274 L181.225115,222.729274 L181.442574,224.264724 L181.442574,224.264724 L181.728212,226.186745 L181.728212,226.186745 L181.938746,227.526704 L181.938746,227.526704 L182.077142,228.368385 L182.077142,228.368385 L182.281532,229.549111 L182.281532,229.549111 L182.415499,230.279193 L182.415499,230.279193 L182.547509,230.961587 L182.547509,230.961587 C183.606038,236.278403 184.753494,241.468408 185.909012,246.491087 L186.7759,250.22609 L186.7759,250.22609 C191.449374,249.947622 196.178331,249.807363 200.953907,249.807363 C206.069271,249.807363 211.131145,249.968292 216.129837,250.283337 C217.576287,244.099049 219.043808,237.63006 220.371438,230.961587 L220.499487,230.300217 L220.499487,230.300217 L220.629382,229.59391 L220.629382,229.59391 L220.89432,228.052844 L220.89432,228.052844 L221.029169,227.221268 L221.029169,227.221268 L221.303141,225.443982 L221.303141,225.443982 L221.582163,223.525124 L221.582163,223.525124 L221.865458,221.477422 L221.865458,221.477422 L222.2244,218.755994 L222.2244,218.755994 L222.6602,215.285787 L222.6602,215.285787 L223.02581,212.252701 L223.02581,212.252701 L223.318802,209.751677 L223.318802,209.751677 L224.192308,201.984611 L224.192308,201.984611 L225.222757,192.367745 L225.222757,192.367745 L227.179597,173.551263 L227.179597,173.551263 L227.653912,169.144558 L227.653912,169.144558 L227.976126,166.333948 L227.976126,166.333948 L228.069036,165.577696 L228.069036,165.577696 L228.154268,164.918811 L228.154268,164.918811 C235.609275,109.098231 264.502703,67.4882796 299.009328,67.4882796 Z" id="Path" fill="#FFFFFF" mask="url(#mask-3)"></path>
                    <ellipse id="Oval" fill="#FFFFFF" mask="url(#mask-3)" cx="210.667039" cy="285.991189" rx="79.4318344" ry="69.5682197"></ellipse>
                </g>
                <circle id="Oval" fill="#222222" cx="99.7214878" cy="155.697907" r="15.1093163"></circle>
                <circle id="Oval" fill="#222222" cx="303.193614" cy="155.697907" r="15.1093163"></circle>
                <ellipse id="Oval" fill="#ECB65C" cx="201.457551" cy="218.293646" rx="29.2113449" ry="15.1093163"></ellipse>
            </g>
            <g id="Group-12" transform="translate(115.118601, 242.900247)">
                <mask id="mask-5" fill="white">
                    <use xlink:href="#path-4"></use>
                </mask>
                <use id="Oval" fill="#ECB65C" xlink:href="#path-4"></use>
                <g id="Group-10" mask="url(#mask-5)" fill="#FFFFFF" fill-rule="nonzero">
                    <g transform="translate(0.471672, 0.053382)" id="Line-3">
                        <polygon points="89.6575644 -2.96485985 89.6575644 176.350269 82.6575644 176.350269 82.6575644 -2.96485985"></polygon>
                        <polygon transform="translate(86.157564, 86.692705) rotate(-90.000000) translate(-86.157564, -86.692705) " points="89.6575644 -2.96485985 89.6575644 176.350269 82.6575644 176.350269 82.6575644 -2.96485985"></polygon>
                        <path d="M26.9299996,-1.17951704 L33.2879261,-4.10812925 L35.2279523,0.106690291 L36.1651055,2.16588682 L37.0832067,4.20840076 C37.2346357,4.54742989 37.3852708,4.88576418 37.5351118,5.22340377 L38.4246293,7.24090591 L39.2950873,9.24174157 C39.4385751,9.57382567 39.5812687,9.90521559 39.7231679,10.2359115 L40.5650306,12.2117595 L41.3878261,14.1709571 C41.5233696,14.4961029 41.6581184,14.8205552 41.7920726,15.1443141 L42.5862614,17.0785482 C42.7170367,17.3995342 42.8470172,17.7198271 42.9762029,18.039427 L43.7417781,19.9487122 L44.4882737,21.8413727 C44.6110995,22.1554311 44.7331302,22.4687971 44.8543657,22.7814708 L45.5722363,24.6492065 C45.9264,25.5789216 46.273406,26.5024086 46.6132526,27.4196711 L47.2833993,29.2458976 C47.5035992,29.851874 47.7206167,30.455085 47.9344511,31.0555317 L48.566405,32.8485798 C48.773873,33.4434989 48.9781574,34.0356547 49.1792579,34.6250484 L49.7730066,36.3849439 L50.3476482,38.1282728 C50.5360105,38.706622 50.7211878,39.2822113 50.9031795,39.8550415 L51.4395975,41.5652564 C51.9664579,43.2671966 52.4646437,44.9443159 52.9341411,46.5966431 L53.3940752,48.2407074 L53.8348807,49.8682502 C53.9067541,50.1381309 53.9778303,50.4073235 54.0481092,50.675828 L54.460216,52.2786005 C54.7285754,53.341613 54.9841773,54.3936219 55.2270175,55.4346357 L55.5817061,56.9879112 C57.6524043,66.2580995 58.6892445,74.6380372 58.6892445,82.1339855 C58.6892445,89.3994437 57.7133723,97.8706192 55.7634516,107.555569 L55.4196381,109.227737 C55.3607457,109.508414 55.3010582,109.790083 55.2405757,110.072742 L54.868141,111.780598 L54.476628,113.512256 L54.0660387,115.267726 L53.6363752,117.047016 C53.5631752,117.34555 53.4891805,117.645077 53.4143912,117.945597 L52.9561202,119.760636 L52.4787802,121.599517 L51.982373,123.462251 C51.8980497,123.774695 51.8129319,124.088133 51.7270199,124.402565 L51.202016,126.301094 C51.1129268,126.619505 51.0230433,126.938911 50.9323657,127.259311 L50.3787696,129.193656 L49.8061146,131.151889 L49.2144027,133.134019 C49.1141961,133.466366 49.0131956,133.799709 48.9114011,134.134049 L48.2911078,136.152042 L47.6517627,138.193955 L46.993368,140.259797 C46.8820482,140.606098 46.7699347,140.953397 46.6570276,141.301694 L45.9700621,143.403446 L45.264052,145.529149 L44.5389993,147.678813 C44.4165705,148.039088 44.2933482,148.400361 44.1693327,148.762633 L43.41572,150.948255 L42.6430699,153.15786 L41.8513843,155.391456 L41.0406654,157.649054 C40.9039595,158.027321 40.7664608,158.406588 40.628169,158.786856 L39.7889039,161.080472 C39.6474406,161.464743 39.5051845,161.850015 39.3621356,162.236288 L38.4943287,164.565943 L37.6074967,166.919636 L36.7016416,169.297374 L35.7767653,171.699167 C35.6210342,172.101471 35.4645107,172.504778 35.3071948,172.909087 L33.5581143,177.384626 L27.0389124,174.835114 L28.313668,171.575513 C28.625626,170.777825 28.9344558,169.984139 29.2401579,169.194458 L30.1478813,166.83743 L31.0368403,164.50444 L31.9070369,162.195496 C32.0505062,161.812676 32.1931939,161.430859 32.3350999,161.050044 L33.1771567,158.777186 L34.0004562,156.528397 C34.1361098,156.155605 34.2709819,155.783816 34.4050726,155.413031 L35.20024,153.200362 L35.9766552,151.011784 L36.7343203,148.847306 C36.8590354,148.488569 36.9829694,148.130836 37.1061222,147.774108 L37.8356659,145.645798 L38.5464645,143.54161 L39.2385202,141.461555 C39.352301,141.11689 39.4653009,140.773232 39.57752,140.430579 L40.241465,138.386738 L40.8866721,136.367052 C41.0986183,135.69785 41.307442,135.032675 41.5131433,134.371529 L42.1208807,132.400178 L42.7098864,130.453009 L43.2801623,128.53003 C43.3736476,128.21155 43.4663526,127.894078 43.5582773,127.577615 L44.1004624,125.690939 C44.1892662,125.378511 44.2772897,125.067091 44.3645332,124.75668 L44.8786322,122.906327 L45.3740096,121.080201 L45.8506675,119.27831 L46.308608,117.500664 C46.3833717,117.20641 46.4573556,116.913167 46.5305598,116.620935 L46.9604278,114.879673 C47.0305131,114.591484 47.0998187,114.304307 47.1683446,114.018141 L47.5701449,112.313283 C47.70096,111.749043 47.8286568,111.18885 47.9532358,110.632705 L48.3176195,108.976417 L48.663298,107.344428 C48.8875157,106.264536 49.0992646,105.20085 49.2985474,104.153381 L49.5881224,102.594343 L49.8590004,101.059638 C51.0794744,93.9544809 51.6892445,87.6445549 51.6892445,82.1339855 C51.6892445,80.3684575 51.6265207,78.5451014 51.5010266,76.6640151 L51.4080641,75.401406 C50.9137934,69.257468 49.7676885,62.514359 47.9681904,55.1753521 L47.5865568,53.6484353 C47.3259184,52.6248236 47.0528471,51.5898794 46.7673389,50.5436111 L46.3297484,48.9657166 L45.8734995,47.3708425 C45.4855168,46.0347077 45.0780951,44.6808925 44.6512263,43.3094136 L44.1296486,41.6551615 L43.5893987,39.9839587 C43.3146051,39.1441207 43.0328083,38.2979286 42.7440066,37.4453861 L42.1570626,35.7318348 L41.5514356,34.0013555 L40.9271225,32.2539544 L40.2841203,30.4896381 L39.622426,28.7084131 L38.9420363,26.9102856 L38.2429483,25.0952623 C38.0068023,24.4874393 37.7675393,23.8768013 37.5251589,23.2633495 L36.7886651,21.4145537 C36.5400494,20.7954753 36.2883158,20.1735841 36.0334637,19.5488813 L35.2595517,17.6663387 C35.129007,17.3511762 34.9976825,17.0353109 34.8655783,16.7187432 L34.0635946,14.8109075 C33.9283709,14.4915302 33.7923672,14.1714507 33.6555836,13.850669 L32.8255214,11.9175547 C32.6856175,11.5939651 32.5449335,11.2696736 32.4034694,10.9446805 L31.5453217,8.986302 C31.4007365,8.65850252 31.255371,8.33000159 31.1092252,8.00079935 L30.2229851,6.01717122 L29.318013,4.01671805 L28.3943057,1.99944626 L26.9299996,-1.17951704 Z"></path>
                        <path d="M114.762793,-1.17951704 L121.12072,-4.10812925 L123.060746,0.106690291 L123.997899,2.16588682 L124.916,4.20840076 L125.815047,6.23423856 L126.695035,8.24340665 L127.555962,10.2359115 C127.697861,10.5666074 127.838966,10.8966092 127.979276,11.2259172 L128.811606,13.1934392 C128.948738,13.5199721 129.085076,13.8458114 129.22062,14.1709571 L130.024345,16.1135108 C130.15671,16.4358831 130.28828,16.7575622 130.419055,17.0785482 L131.194169,18.9961481 L131.950205,20.8971201 C132.199037,21.5280069 132.444688,22.1561234 132.687159,22.7814708 L133.40503,24.6492065 L134.103813,26.5003336 C134.218686,26.8074712 134.332764,27.1139169 134.446046,27.4196711 L135.116193,29.2458976 C135.336393,29.851874 135.55341,30.455085 135.767245,31.0555317 L136.399199,32.8485798 C137.125337,34.9307966 137.812477,36.9791636 138.460597,38.9937268 L139.006572,40.7122178 C139.364184,41.8523609 139.709053,42.9814703 140.041174,44.0995546 L140.529795,45.7684134 L140.999293,47.4207409 L141.449663,49.0565436 C144.829173,61.5343695 146.522038,72.5558294 146.522038,82.1339855 C146.522038,83.3794927 146.49336,84.6604331 146.436011,85.9768474 L146.369107,87.3050879 C146.050523,92.8887052 145.234257,99.0884239 143.920975,105.90718 L143.596245,107.555569 L143.252432,109.227737 C143.134647,109.789091 143.013682,110.35441 142.889537,110.923695 L142.507563,112.643451 C142.377059,113.22067 142.243375,113.801857 142.106511,114.387014 L141.686385,116.154393 C141.471553,117.044038 141.249569,117.942617 141.020433,118.850137 L140.552627,120.677095 C140.473071,120.983576 140.39272,121.291049 140.311574,121.599517 L139.815167,123.462251 L139.299695,125.348846 L138.765159,127.259311 L138.211563,129.193656 C138.117709,129.518037 138.023061,129.843414 137.927618,130.169786 L137.345434,132.139966 C137.049578,133.131031 136.746577,134.131059 136.43643,135.140056 L135.80661,137.170008 L135.15774,139.223884 C135.048008,139.568191 134.937482,139.913495 134.826162,140.259797 L134.148719,142.349576 L133.452231,144.463303 L132.7367,146.600986 L132.002126,148.762633 L131.248514,150.948255 C131.121325,151.314524 130.993343,151.681791 130.864568,152.050059 L130.0824,154.271658 L129.281198,156.517254 C129.146078,156.893521 129.010165,157.270787 128.873459,157.649054 L128.043709,159.930662 L127.194929,162.236288 C127.05188,162.622562 126.908039,163.009836 126.763404,163.398112 L125.886085,165.739784 L124.989741,168.105498 L124.074375,170.495263 L123.139989,172.909087 L121.390908,177.384626 L114.871706,174.835114 L116.612053,170.381983 L117.529159,168.01294 L118.4275,165.66793 L119.307077,163.346962 L120.167894,161.050044 C120.3098,160.669229 120.450924,160.289417 120.591267,159.910607 L121.423945,157.649783 C121.561161,157.274984 121.697596,156.901189 121.83325,156.528397 L122.637794,154.303686 C122.770322,153.934907 122.902069,153.567133 123.033034,153.200362 L123.809449,151.011784 L124.567114,148.847306 L125.306031,146.706938 L126.026202,144.590688 C126.144668,144.23999 126.262354,143.890297 126.379258,143.54161 L127.071314,141.461555 C127.185095,141.11689 127.298095,140.773232 127.410314,140.430579 L128.074259,138.386738 L128.719466,136.367052 C128.825439,136.032451 128.930631,135.698856 129.035043,135.366269 L129.652147,133.382831 L130.250519,131.42357 L130.830159,129.488495 L131.391071,127.577615 L131.933256,125.690939 C132.02206,125.378511 132.110083,125.067091 132.197327,124.75668 L132.711426,122.906327 C132.795549,122.599954 132.878892,122.29459 132.961455,121.990235 L133.447472,120.176225 C133.526915,119.87591 133.605578,119.576605 133.683461,119.27831 L134.141402,117.500664 C134.216165,117.20641 134.290149,116.913167 134.363354,116.620935 L134.793222,114.879673 C134.933392,114.303296 135.070444,113.730964 135.204377,113.162677 L135.596823,111.469958 C135.660671,111.189862 135.72374,110.910777 135.78603,110.632705 L136.150413,108.976417 L136.496092,107.344428 L136.823067,105.736746 C137.193629,103.875301 137.526009,102.063502 137.820222,100.301415 L138.063059,98.8032296 C139.035933,92.6115302 139.522038,87.0541368 139.522038,82.1339855 C139.522038,75.8565526 138.729086,68.8480586 137.141087,61.112901 L136.83402,59.6540445 C136.675827,58.9203595 136.510646,58.1802902 136.338474,57.4338402 L135.984808,55.9324339 C135.682319,54.6741742 135.360408,53.3981971 135.019068,52.1045194 L134.600133,50.5436111 L134.162542,48.9657166 L133.706293,47.3708425 C133.5511,46.8363886 133.392797,46.2991058 133.231383,45.7589952 L132.737808,44.1301812 C132.65399,43.8572986 132.569394,43.5837094 132.48402,43.3094136 L131.962442,41.6551615 L131.422192,39.9839587 C131.238997,39.4240667 131.052688,38.8613507 130.863267,38.2958117 L130.285664,36.5907269 L129.689378,34.8687108 C129.487503,34.2918842 129.282513,33.7122368 129.074409,33.1297697 L128.440752,31.3739103 L127.788404,29.6011388 C127.567839,29.007397 127.344159,28.4108376 127.117362,27.8114617 L126.427624,26.0048856 L125.719185,24.1814167 L124.992044,22.3410616 L124.246197,20.4838267 C124.12033,20.1728812 123.993683,19.8612327 123.866257,19.5488813 L123.092345,17.6663387 C122.961801,17.3511762 122.830476,17.0353109 122.698372,16.7187432 L121.896388,14.8109075 C121.761165,14.4915302 121.625161,14.1714507 121.488377,13.850669 L120.658315,11.9175547 C120.518411,11.5939651 120.377727,11.2696736 120.236263,10.9446805 L119.378115,8.986302 C119.23353,8.65850252 119.088165,8.33000159 118.942019,8.00079935 L118.055779,6.01717122 L117.150807,4.01671805 L116.227099,1.99944626 L114.762793,-1.17951704 Z" transform="translate(130.642416, 86.638248) scale(-1, 1) translate(-130.642416, -86.638248) "></path>
                    </g>
                </g>
            </g>
            <ellipse id="Oval-Copy" fill="url(#linearGradient-6)" transform="translate(100.916999, 329.656074) rotate(-10.000000) translate(-100.916999, -329.656074) " cx="100.916999" cy="329.656074" rx="77.0601819" ry="49.5009983"></ellipse>
            <ellipse id="Oval-Copy" fill="url(#linearGradient-6)" transform="translate(303.664297, 329.656074) scale(-1, 1) rotate(-10.000000) translate(-303.664297, -329.656074) " cx="303.664297" cy="329.656074" rx="77.0601819" ry="49.5009983"></ellipse>
        </g>
    </g>
</svg>